<svg width="182" height="32" viewBox="0 0 182 32" fill="none" xmlns="http://www.w3.org/2000/svg">
<path fill-rule="evenodd" clip-rule="evenodd" d="M14.6894 28.1587C15.664 28.1587 16.453 28.9374 16.453 29.8993C16.453 30.8612 15.664 31.6399 14.6894 31.6399C13.7148 31.6399 12.9258 30.8612 12.9258 29.8993C12.9258 28.9374 13.7148 28.1587 14.6894 28.1587Z" fill="white"/>
<path fill-rule="evenodd" clip-rule="evenodd" d="M25.2246 28.1587C26.1992 28.1587 26.9882 28.9374 26.9882 29.8993C26.9882 30.8612 26.1992 31.6399 25.2246 31.6399C24.2499 31.6399 23.4609 30.8612 23.4609 29.8993C23.4609 28.9374 24.2499 28.1587 25.2246 28.1587Z" fill="white"/>
<path d="M53.8476 15.6884C56.0174 16.7591 56.9166 18.3852 56.5453 20.5667L56.3944 21.4599C56.0696 23.3723 55.2516 24.8267 53.9347 25.8172C52.6178 26.8135 50.8773 27.3059 48.7076 27.3059C46.5379 27.3059 45.0006 26.8078 44.0201 25.8172C43.0397 24.8267 42.7148 23.3609 43.0397 21.4199C43.1557 20.7328 43.7591 20.2289 44.4668 20.2289H47.2109C47.2109 20.2289 47.2573 20.2518 47.2573 20.2804L47.0543 21.4943C46.7874 23.0574 47.5358 23.8418 49.2994 23.8418C51.063 23.8418 52.1478 23.0746 52.4089 21.5344L52.5191 20.8645C52.6874 19.8682 52.2291 19.1009 51.15 18.557L47.4197 16.6217C45.3603 15.5052 44.5249 13.8275 44.9019 11.5945L45.0238 10.8845C45.3486 8.97207 46.1434 7.51201 47.4081 6.50427C48.6728 5.49654 50.3784 4.99268 52.5249 4.99268C54.6714 4.99268 56.203 5.49654 57.1312 6.50427C58.0594 7.51201 58.3611 8.97207 58.0362 10.8845L57.8738 11.8521C57.8738 11.8521 57.8506 11.8865 57.8274 11.8865H54.9963C54.4162 11.8865 53.9753 11.3712 54.0681 10.8043C54.2073 9.98553 54.1203 9.3786 53.8012 8.9778C53.488 8.58272 52.8672 8.38232 51.9506 8.38232C51.034 8.38232 50.3494 8.577 49.9027 8.96062C49.456 9.34425 49.1601 9.94545 49.0267 10.77L48.9339 11.3311C48.7482 12.4247 49.1892 13.2206 50.2566 13.713L53.8651 15.6884H53.8476Z" fill="white"/>
<path d="M58.8418 27.3118L63.1522 1.72918C63.3205 0.732896 64.1965 0 65.2233 0H67.5032L66.1515 8.01032C66.4764 7.43775 67.0449 6.89953 67.8571 6.38994C68.6693 5.88035 69.6497 5.62841 70.7984 5.62841C72.4054 5.62841 73.5831 6.09792 74.3314 7.04267C75.0798 7.98742 75.3177 9.24136 75.0566 10.8045L72.504 25.9548C72.3706 26.7393 71.686 27.3118 70.8796 27.3118H68.182L70.8274 11.6233C71.1059 9.95708 70.3923 9.12685 68.6867 9.12685C67.9209 9.12685 67.2422 9.34442 66.6446 9.77958C66.0471 10.2147 65.6874 10.8159 65.554 11.5889L62.9028 27.3118H58.8476H58.8418Z" fill="white"/>
<path d="M91.0427 21.4454C90.7178 23.3807 89.8592 24.8923 88.4785 25.9745C87.0978 27.0566 85.3457 27.5949 83.2282 27.5949C81.1108 27.5949 79.5096 27.0566 78.5059 25.9745C77.5023 24.8923 77.1658 23.3864 77.4907 21.4454L79.1789 11.4253C79.5038 9.49003 80.3508 7.97843 81.7199 6.89627C83.089 5.8141 84.8468 5.27588 86.9875 5.27588C89.1282 5.27588 90.6714 5.81983 91.6866 6.91344C92.7019 8.00706 93.05 9.50721 92.7251 11.4196L91.0369 21.4397L91.0427 21.4454ZM88.6757 11.4253C88.9658 9.71334 88.2058 8.85447 86.39 8.85447C84.5742 8.85447 83.4893 9.71334 83.1992 11.4253L81.511 21.4454C81.221 23.1574 81.9984 24.0163 83.8316 24.0163C85.6648 24.0163 86.6917 23.1574 86.9817 21.4454L88.6699 11.4253H88.6757Z" fill="white"/>
<path d="M107.778 20.3083C107.488 22.026 106.768 23.3601 105.614 24.3163C104.459 25.2725 103.073 25.7478 101.46 25.7478C99.8473 25.7478 98.6406 25.3183 98.0779 24.4595L97.1264 30.1051C96.9756 30.9983 96.1924 31.651 95.2758 31.651H92.9727L97.1903 6.65238C97.3527 5.69618 98.1881 4.99764 99.1685 4.99764H101.367L101.077 6.71536C101.396 6.26303 101.93 5.83932 102.667 5.44424C103.409 5.04917 104.28 4.85449 105.283 4.85449C106.902 4.85449 108.079 5.31828 108.816 6.25158C109.553 7.17915 109.785 8.44454 109.518 10.042L107.789 20.3083H107.778ZM98.7972 20.1652C98.6754 20.8809 98.8262 21.442 99.2497 21.8485C99.6732 22.2551 100.265 22.4555 101.019 22.4555C102.661 22.4555 103.612 21.671 103.879 20.0964L105.486 10.5802C105.753 9.00566 105.063 8.22123 103.421 8.22123C102.661 8.22123 102 8.42164 101.443 8.82816C100.886 9.23469 100.543 9.79582 100.422 10.5115L98.7914 20.1709L98.7972 20.1652Z" fill="white"/>
<path d="M117.321 0H119.781L115.464 25.5884C115.296 26.5847 114.426 27.3118 113.399 27.3118H111.113L115.459 1.55168C115.609 0.652736 116.398 0 117.315 0L117.321 0Z" fill="#FFC900"/>
<path d="M133.75 21.1622C133.425 23.0975 132.566 24.6091 131.186 25.6913C129.805 26.7734 128.053 27.3117 125.935 27.3117C123.818 27.3117 122.217 26.7734 121.213 25.6913C120.209 24.6091 119.873 23.1032 120.198 21.1622L121.886 11.1421C122.211 9.20683 123.058 7.69523 124.427 6.61306C125.796 5.5309 127.554 4.99268 129.695 4.99268C131.835 4.99268 133.378 5.53662 134.394 6.63024C135.409 7.72386 135.757 9.22401 135.432 11.1364L133.744 21.1565L133.75 21.1622ZM131.383 11.1421C131.673 9.43013 130.913 8.57127 129.097 8.57127C127.281 8.57127 126.196 9.43013 125.906 11.1421L124.218 21.1622C123.928 22.8742 124.705 23.7331 126.539 23.7331C128.372 23.7331 129.399 22.8742 129.689 21.1622L131.377 11.1421H131.383Z" fill="#FFC900"/>
<path d="M142.939 14.1321C143.003 15.6208 143.032 17.1037 143.02 18.5867C143.008 20.064 142.979 21.1748 142.933 21.9191L142.904 23.0356C143.687 20.4132 144.702 17.4473 145.95 14.1321L148.781 6.52829C149.123 5.60644 150.011 4.99951 151.003 4.99951H153.509L144.836 27.3185H139.568L138.385 4.99951H142.62L142.939 14.1321Z" fill="#FFC900"/>
<path d="M157.484 17.2859L156.817 21.2366C156.532 22.9257 157.321 23.7674 159.184 23.7674C161.046 23.7674 162.119 22.92 162.403 21.2366C162.554 20.3549 163.326 19.7079 164.231 19.7079H166.679L166.435 21.1622C166.111 23.0975 165.252 24.6091 163.871 25.6913C162.49 26.7734 160.727 27.3117 158.586 27.3117C156.445 27.3117 154.867 26.7734 153.864 25.6913C152.86 24.6091 152.518 23.1032 152.849 21.1622L154.537 11.1421C154.862 9.20683 155.709 7.69523 157.078 6.61306C158.447 5.5309 160.205 4.99268 162.345 4.99268C164.486 4.99268 166.07 5.53662 167.085 6.63024C168.1 7.72386 168.448 9.22401 168.124 11.1364L167.091 17.2458H166.94V17.2859H157.484ZM164.161 11.062C164.446 9.37287 163.645 8.53119 161.754 8.53119C159.862 8.53119 158.818 9.3786 158.534 11.062L158.018 14.1195H163.645L164.161 11.062Z" fill="#FFC900"/>
<path d="M181.298 9.05719C180.897 8.93123 180.364 8.86252 179.702 8.86252C178.803 8.86252 178.008 9.16598 177.312 9.76719C176.616 10.3741 176.181 11.1757 176.013 12.1777L173.785 25.3928C173.599 26.4978 172.63 27.3109 171.493 27.3109H169.26L173.031 4.96901H177.034L176.535 7.94067C176.773 7.1677 177.3 6.46343 178.118 5.81642C178.942 5.17513 179.957 4.85449 181.176 4.85449C181.57 4.85449 181.849 4.86594 182 4.89457L181.298 9.06292V9.05719Z" fill="#FFC900"/>
<path fill-rule="evenodd" clip-rule="evenodd" d="M0 0H8.4816L9.89713 3.65875H4.07256L3.3822 1.84369H0.696164L0 0Z" fill="white"/>
<path fill-rule="evenodd" clip-rule="evenodd" d="M4.58789 5.01545L35.2481 4.98682L33.1712 10.5064H12.3675L13.0521 12.3101H32.4925L28.8898 21.8663H18.6156L17.113 17.9728H24.5504L25.2292 16.1692H8.78228L4.58789 5.01545Z" fill="white"/>
<path fill-rule="evenodd" clip-rule="evenodd" d="M9.56055 18.2476L12.9659 27.3114L26.8602 27.3057L28.3338 23.4122H17.3228L15.3329 18.2476H9.56055Z" fill="#FFC900"/>
</svg>
